# xmcd CD database file
#
# Track frame offsets:
#	150
#	12524
#	28972
#	41034
#	55168
#	68021
#	78774
#	93967
#	105199
#	120682
#	131267
#	143677
#	154635
#	167317
#
# Disc length: 2436 seconds
#
# Revision: 0
# Processed by: cddbd v1.5.1PL0 Copyright (c) Steve Scherf et al.
# Submitted via: CDex 1.50beta9
#
DISCID=a209820e
DTITLE=Richie Kavanagh - The Mobile Phone
DYEAR=1900
DGENRE=Country
TTITLE0=Me Granny Was A Plucker
TTITLE1=The Anglia Deluxe
TTITLE2=The Mobile Phone
TTITLE3=Me Little Zuki Jeep
TTITLE4=Get Out Your Focal Leabhar
TTITLE5=Her Name Was Nellie
TTITLE6=Why Did They Call Me E.S.B.
TTITLE7=Me Lovely Yellow Scooter
TTITLE8=Danoli
TTITLE9=A Long Lank Of A Loody
TTITLE10=The Old Dance Hall
TTITLE11=Sally Doran's Nellie Bike
TTITLE12=Me Father Was A Fairy
TTITLE13=Follow The Wren
EXTD=
EXTT0=
EXTT1=
EXTT2=
EXTT3=
EXTT4=
EXTT5=
EXTT6=
EXTT7=
EXTT8=
EXTT9=
EXTT10=
EXTT11=
EXTT12=
EXTT13=
PLAYORDER=
